<svg width="77" height="97" viewBox="0 0 77 97" fill="#FFAB01" xmlns="http://www.w3.org/2000/svg">
<path fill-rule="evenodd" clip-rule="evenodd" d="M25.3588 21.9033C21.6659 22.5391 17.8876 25.2274 14.9578 27.4294C1.89453 37.2468 -2.86193 54.5467 1.84352 69.9079C6.60623 85.4554 21.4812 95.6072 37.3599 96.3027C64.8361 97.5058 84.3167 67.786 73.6779 42.9053C69.445 33.0061 61.2625 25.3844 51.1613 21.7141C48.161 20.624 45.0702 20.2807 41.9604 19.7031C42.8135 16.7418 45.4787 14.3966 48.361 13.4525C50.2784 12.8242 52.7179 13.51 53.7775 11.3016C55.1026 8.5398 52.5301 6.55336 49.9611 6.84488C45.4242 7.35993 42.0141 9.05035 38.7601 12.3024C35.9768 6.34834 29.7625 1.94316 23.3586 0.786303C21.3589 0.424769 18.2156 -0.374808 16.6367 1.34411C15.2553 2.84825 15.8776 5.29324 16.1319 7.10191C17.0145 13.38 20.7433 17.8837 25.3588 21.9033Z M22.7585 7.30192C23.2271 12.6694 29.2396 18.4385 34.5597 18.903C33.7668 13.534 28.2718 7.78321 22.7585 7.30192Z M36.7124 25.9337C30.321 26.7755 24.5402 28.3879 19.3107 32.3803C16.0023 34.9091 13.2178 38.0577 11.1124 41.6504C1.46102 58.1463 8.75347 79.8606 26.3114 87.3693C31.8452 89.7358 38.0065 90.2353 43.9131 89.398C48.2025 88.7897 52.5097 87.1123 56.1143 84.7211C65.0256 78.8095 70.8262 68.6485 70.7149 57.852C70.5372 40.5718 54.9252 23.5354 36.7124 25.9337Z M63.1624 54.8129C61.7923 55.113 60.8687 56.1368 60.6279 57.5067C59.7981 62.2292 59.5483 66.112 56.7893 70.3079C53.7415 74.9434 48.8995 78.2712 43.5605 79.6776C41.4051 80.2454 38.2145 79.6938 36.3683 80.908C33.5861 82.7376 35.4173 86.5915 38.36 86.7008C48.8913 87.0913 59.7821 79.9974 64.0752 70.5079C65.7874 66.7233 66.823 62.6727 66.9543 58.5068C67.0203 56.4106 65.4666 54.3089 63.1624 54.8129Z"/>
</svg>
