<?xml version="1.0" standalone="no"?>
<!DOCTYPE svg PUBLIC "-//W3C//DTD SVG 20010904//EN"
 "http://www.w3.org/TR/2001/REC-SVG-20010904/DTD/svg10.dtd">
<svg version="1.0" xmlns="http://www.w3.org/2000/svg"
 width="776.000000pt" height="776.000000pt" viewBox="0 0 776.000000 776.000000"
 preserveAspectRatio="xMidYMid meet">
<metadata>
Created by potrace 1.14, written by Peter Selinger 2001-2017
</metadata>
<g transform="translate(0.000000,776.000000) scale(0.100000,-0.100000)"
fill="#000000" stroke="none">
<path d="M2245 7719 c-78 -24 -130 -71 -159 -143 -20 -49 -23 -71 -20 -159 1
-56 5 -115 9 -132 13 -70 15 -82 20 -122 6 -49 56 -238 80 -303 47 -128 192
-373 280 -475 115 -133 183 -203 293 -303 39 -36 72 -69 72 -72 0 -3 -8 -6
-19 -7 -29 -2 -216 -66 -219 -75 -2 -4 -9 -8 -15 -8 -16 0 -126 -56 -224 -114
-71 -43 -379 -258 -393 -275 -3 -3 -30 -26 -60 -51 -105 -85 -249 -225 -335
-325 -27 -32 -55 -63 -61 -69 -9 -10 -78 -102 -151 -203 -13 -18 -22 -34 -21
-36 2 -2 -4 -11 -12 -20 -32 -35 -45 -52 -42 -54 2 -3 -17 -37 -47 -83 -17
-25 -134 -260 -166 -333 -27 -63 -97 -250 -101 -274 -2 -12 -9 -34 -14 -48 -5
-14 -7 -25 -4 -25 4 0 2 -6 -4 -12 -10 -14 -57 -203 -67 -273 -4 -22 -8 -48
-11 -57 -9 -30 -14 -66 -30 -203 -23 -202 -22 -543 1 -712 3 -18 7 -50 10 -70
3 -21 8 -60 11 -87 3 -27 10 -60 15 -74 5 -14 8 -27 5 -29 -2 -3 2 -26 9 -51
8 -26 17 -65 21 -87 3 -22 8 -43 11 -47 2 -5 6 -16 8 -25 2 -10 11 -43 20 -73
21 -74 21 -73 27 -90 3 -8 20 -55 38 -105 49 -135 100 -245 192 -415 32 -58
191 -302 212 -323 6 -6 41 -48 76 -92 100 -123 328 -347 438 -430 7 -5 21 -17
30 -26 9 -8 30 -23 47 -34 16 -10 34 -22 40 -27 5 -5 24 -20 40 -33 17 -14 34
-25 38 -25 5 0 23 -11 40 -24 86 -66 426 -247 527 -281 3 -1 19 -7 35 -15 39
-16 245 -91 265 -95 8 -2 58 -15 110 -30 52 -14 106 -28 120 -31 14 -2 36 -7
50 -10 51 -12 148 -29 215 -39 23 -3 50 -7 61 -9 95 -19 496 -26 634 -12 119
12 203 23 236 31 12 2 37 7 56 10 19 3 88 19 154 36 153 39 143 36 184 50 30
10 48 17 70 24 3 1 19 7 35 14 17 7 35 14 40 15 6 1 27 10 49 19 21 9 40 17
41 17 2 0 46 20 98 44 208 97 454 252 608 381 19 16 60 50 89 75 64 53 223
211 298 295 131 147 412 552 394 569 -3 3 -1 6 5 6 13 0 159 303 155 323 -1 4
2 7 8 7 5 0 10 6 10 14 0 11 20 69 50 141 9 20 23 66 25 75 0 3 3 10 6 15 4 6
10 26 15 45 11 50 11 50 14 53 4 5 57 223 63 262 3 17 10 57 15 90 12 65 18
105 29 205 9 82 9 517 0 587 -4 29 -9 67 -11 85 -5 34 -22 139 -31 193 -3 17
-8 38 -11 47 -3 10 -8 30 -10 45 -3 16 -12 51 -20 79 -8 28 -16 60 -18 70 -9
43 -77 235 -117 329 -7 17 -13 32 -13 35 -4 20 -144 289 -176 338 -22 35 -40
65 -40 68 0 3 -11 20 -25 38 -14 18 -25 36 -25 40 0 4 -11 19 -25 34 -14 15
-25 32 -25 39 0 6 -3 13 -7 15 -5 2 -31 33 -59 71 -224 293 -528 565 -854 763
-207 125 -541 275 -690 309 -8 2 -16 4 -17 5 -2 2 -6 3 -10 4 -122 28 -201 45
-238 51 -11 1 -49 8 -85 15 -36 7 -76 14 -90 16 -14 2 -35 5 -47 8 -11 2 -42
8 -67 11 -52 8 -53 12 -18 89 12 27 22 52 22 57 0 5 3 9 8 9 4 0 16 16 27 36
21 38 169 194 185 194 5 0 15 6 23 14 22 23 137 81 203 104 32 11 86 23 119
26 57 7 81 10 149 22 125 21 208 126 202 256 -4 95 -52 159 -155 205 -99 44
-281 27 -502 -47 -79 -26 -246 -103 -259 -119 -6 -7 -39 -28 -60 -38 -8 -4
-19 -11 -25 -15 -5 -4 -37 -29 -70 -55 -33 -26 -80 -67 -105 -90 -24 -24 -47
-39 -51 -35 -4 4 -18 27 -32 52 -64 120 -56 107 -148 224 -178 227 -408 401
-701 530 -32 14 -58 22 -58 19 0 -3 -6 -1 -12 5 -18 14 -160 56 -233 68 -16 3
-46 9 -65 14 -145 37 -320 45 -405 19z m491 -562 c239 -57 503 -258 665 -507
82 -125 141 -265 155 -363 l6 -39 -45 6 c-198 27 -452 178 -631 375 -44 48
-137 179 -161 226 -11 22 -22 42 -25 45 -15 15 -80 229 -80 264 0 8 69 4 116
-7z m1451 -1461 c51 -4 102 -9 115 -12 13 -2 37 -6 53 -9 17 -3 41 -8 55 -10
14 -3 34 -7 45 -9 11 -2 56 -14 100 -26 44 -12 85 -22 90 -24 6 -1 33 -10 60
-19 28 -9 54 -17 59 -16 5 0 12 -3 15 -8 3 -4 24 -14 46 -22 72 -25 293 -138
357 -182 14 -11 31 -19 36 -19 6 0 12 -4 14 -9 3 -7 47 -39 107 -76 9 -5 18
-12 21 -16 3 -3 23 -18 45 -35 22 -16 49 -38 61 -49 11 -11 45 -41 75 -67 134
-115 313 -316 415 -465 21 -32 45 -64 51 -71 7 -7 13 -20 13 -28 0 -8 3 -14 8
-14 4 0 15 -15 26 -33 48 -83 61 -107 99 -177 22 -41 44 -81 50 -87 5 -7 6
-13 3 -13 -4 0 0 -12 8 -27 51 -90 152 -382 182 -526 7 -34 32 -168 38 -207
24 -152 26 -537 3 -645 -3 -11 -8 -40 -11 -65 -3 -25 -8 -56 -11 -70 -3 -14
-7 -34 -9 -45 -2 -11 -9 -40 -15 -65 -7 -25 -14 -56 -17 -70 -3 -14 -17 -59
-31 -100 -14 -41 -26 -79 -27 -85 -2 -5 -8 -23 -15 -40 -6 -16 -21 -55 -33
-85 -21 -53 -144 -304 -160 -325 -4 -5 -43 -64 -87 -130 -74 -111 -105 -152
-145 -197 -9 -10 -16 -20 -16 -23 0 -11 -172 -189 -261 -271 -74 -67 -189
-157 -289 -226 -92 -63 -271 -165 -279 -159 -2 1 -7 -1 -10 -6 -15 -22 -331
-144 -433 -168 -13 -3 -61 -14 -108 -25 -84 -19 -142 -29 -210 -35 -19 -2 -51
-6 -70 -9 -164 -26 -530 -21 -695 10 -10 2 -37 6 -60 10 -36 5 -75 13 -155 30
-55 11 -137 34 -190 52 -8 3 -19 6 -25 7 -63 15 -293 119 -431 196 -82 45
-280 179 -331 224 -6 5 -37 33 -69 60 -74 64 -239 229 -273 275 -14 19 -34 41
-43 48 -10 7 -18 18 -18 23 0 6 -6 16 -13 23 -51 54 -174 242 -246 379 -115
217 -203 463 -254 712 -4 18 -9 49 -32 195 -22 139 -22 514 -1 625 2 11 7 43
10 70 7 55 11 76 31 166 12 55 46 182 61 226 9 26 18 53 19 58 1 6 6 19 10 30
4 11 21 53 36 92 51 130 217 440 249 463 3 3 15 20 25 38 11 17 23 32 27 32 4
0 8 5 8 12 0 6 7 18 15 27 8 9 50 59 94 111 101 122 316 330 341 330 5 0 10 4
10 9 0 10 107 91 120 91 4 0 10 3 12 8 4 10 97 71 183 118 73 41 100 55 200
99 33 14 69 30 80 36 61 28 346 116 435 133 14 3 36 7 50 10 14 3 36 8 50 11
40 8 72 14 110 20 20 3 47 8 60 10 14 3 45 8 70 11 25 3 56 7 70 10 14 2 66 7
115 10 50 3 91 7 92 8 3 3 147 -2 240 -8z"/>
<path d="M5820 3365 c-66 -21 -143 -99 -154 -155 -1 -3 -4 -9 -8 -15 -3 -5 -9
-32 -12 -60 -4 -27 -9 -63 -12 -78 -3 -16 -7 -38 -9 -50 -2 -12 -5 -31 -8 -42
-2 -11 -7 -42 -11 -70 -12 -86 -46 -246 -72 -335 -14 -47 -27 -89 -28 -95 -9
-33 -55 -138 -88 -200 -101 -193 -276 -401 -453 -539 -33 -25 -66 -51 -73 -57
-50 -41 -349 -205 -392 -215 -3 0 -12 -3 -20 -7 -31 -12 -136 -45 -175 -56
-73 -19 -112 -23 -326 -36 -225 -13 -342 -81 -376 -220 -17 -69 22 -174 85
-233 62 -58 113 -74 239 -76 112 -3 257 10 353 29 14 3 39 8 55 10 17 3 44 10
60 15 17 5 41 11 55 14 39 7 198 61 269 91 225 94 476 249 655 407 63 54 210
203 239 240 12 16 35 43 50 61 79 89 228 340 292 492 20 48 85 224 91 245 2 8
13 49 24 90 12 41 25 93 30 115 4 22 11 49 13 61 3 12 9 45 12 75 4 30 9 65
12 79 10 63 15 142 16 225 1 77 -3 98 -25 145 -29 60 -56 94 -105 128 -42 29
-140 38 -203 17z"/>
</g>
</svg>
